<?xml version="1.0" encoding="utf-8"?>
<!-- Generator: Adobe Illustrator 19.0.0, SVG Export Plug-In . SVG Version: 6.00 Build 0)  -->
<svg version="1.1" xmlns="http://www.w3.org/2000/svg" xmlns:xlink="http://www.w3.org/1999/xlink" x="0px" y="0px"
	 viewBox="0 0 620.4 181.7" style="enable-background:new 0 0 620.4 181.7;" xml:space="preserve">
<style type="text/css">
	.st0{fill:#FFFFFF;}
</style>
<g id="Layer_2">
	<rect width="620.4" height="181.7"/>
</g>
<g id="Layer_1">
	<g>
		<path class="st0" d="M117.6,71.8v23.7h-1.9V71.8h-8.1V70h18.1v1.8H117.6z"/>
		<path class="st0" d="M142.2,95.5V83.7c0-3.1-1.4-5-4.6-5c-4.4,0-6,3.9-6,7.8v9h-1.8v-26h1.8v11.3c1-2.3,3.6-3.8,6.1-3.8
			c4.1,0,6.3,2.6,6.3,6.6v11.9H142.2z"/>
		<path class="st0" d="M164.8,86.9H151c0,2.1,0.7,4,1.9,5.4c1,1.2,2.4,1.9,4.3,1.9c1.6,0,2.9-0.6,3.9-1.6c0.6-0.7,1.2-1.5,1.4-2.6
			h1.9c-0.3,1.5-1,2.8-2,3.8c-1.3,1.3-3.1,2.1-5.1,2.1c-2.6,0-4.4-1.1-5.7-2.6c-1.5-1.7-2.3-4.1-2.3-6.8c0-2.3,0.4-4.5,1.8-6.4
			c1.5-2,3.6-3.1,6.1-3.1c4.9,0,7.7,4.2,7.7,8.7C164.8,86.2,164.8,86.5,164.8,86.9z M157.1,78.7c-3.7,0-6,3-6,6.5H163
			C162.9,81.8,160.8,78.7,157.1,78.7z"/>
		<path class="st0" d="M194.8,95.5l-14.8-22.6v22.6h-1.9V70h2.1l14.8,22.5V70h1.8v25.5H194.8z"/>
		<path class="st0" d="M215.9,93.8c-1.3,1.3-3,2.2-5.2,2.2c-2.2,0-4-0.9-5.2-2.2c-1.9-1.9-2.6-4.2-2.6-7.3c0-3.1,0.7-5.4,2.6-7.3
			c1.3-1.3,3-2.2,5.2-2.2c2.2,0,4,0.9,5.2,2.2c1.9,1.9,2.6,4.2,2.6,7.3C218.5,89.5,217.8,91.9,215.9,93.8z M214.6,80.4
			c-0.9-1-2.2-1.6-4-1.6c-1.7,0-3,0.6-4,1.6c-1.6,1.7-2,3.8-2,6.1c0,2.3,0.4,4.4,2,6.1c0.9,1,2.2,1.6,4,1.6c1.7,0,3-0.6,4-1.6
			c1.6-1.7,2-3.8,2-6.1C216.6,84.1,216.2,82.1,214.6,80.4z"/>
		<path class="st0" d="M229.4,95.7c-3.3,0-4.6-2.1-4.6-5.2V79.1h-3.6v-1.7h3.6v-5l1.8-0.4v5.4h5.6v1.7h-5.6v11.3
			c0,2.1,0.6,3.6,3,3.6c1,0,1.9-0.1,2.8-0.3v1.6C231.4,95.5,230.4,95.7,229.4,95.7z"/>
		<path class="st0" d="M242.7,95.7c-3.3,0-4.6-2.1-4.6-5.2V79.1h-3.6v-1.7h3.6v-5l1.8-0.4v5.4h5.6v1.7h-5.6v11.3
			c0,2.1,0.6,3.6,3,3.6c1,0,1.9-0.1,2.8-0.3v1.6C244.7,95.5,243.7,95.7,242.7,95.7z"/>
		<path class="st0" d="M250.4,72.5V70h2.5v2.5H250.4z M250.7,95.5v-18h1.9v18H250.7z"/>
		<path class="st0" d="M272.3,95.5V83.7c0-3.1-1.4-4.9-4.6-4.9c-4.4,0-6,3.8-6,7.7v9h-1.8v-18h1.6l0.2,3.3c1-2.3,3.6-3.7,6.1-3.7
			c4.1,0,6.3,2.6,6.3,6.6v11.9H272.3z"/>
		<path class="st0" d="M294.4,101.5c-1.5,1.6-4.2,2.1-7.1,2.1c-2.7,0-5.2-0.5-6.7-2.1c-0.8-0.8-1.3-1.9-1.3-3.2c0-1.7,1-3.4,2.7-4.2
			c-1.3-0.4-2.3-1.7-2.3-2.9c0-1.5,0.8-2.6,2.2-3.4c-1.1-1.1-1.8-2.6-1.8-4.4c0-3.9,2.9-6.3,6.7-6.3c1.6,0,3,0.4,4.2,1.2
			c0.5-1.5,2-2.4,3.6-2.4c0.2,0,0.5,0.1,0.7,0.1v1.5c-0.2,0-0.5-0.1-0.7-0.1c-1.3,0-2.2,0.7-2.5,1.9c0.9,1,1.4,2.4,1.4,4
			c0,3.9-3,6.2-6.8,6.2c-1.3,0-2.6-0.3-3.6-0.8c-0.9,0.4-1.8,1.1-1.8,2.2c0,0.9,0.5,1.4,1.3,1.7c0.6,0.3,1.7,0.3,2.4,0.3h3.9
			c2.3,0,4.1,0.6,5.3,1.8c0.9,0.9,1.4,1.9,1.4,3.5C295.7,99.6,295.1,100.7,294.4,101.5z M293.1,95.9c-0.8-0.9-2.2-1.3-4.3-1.3H284
			c-1.5,0.4-3,1.6-3,3.7c0,0.9,0.4,1.7,1,2.3c1.3,1.2,3.5,1.4,5.3,1.4c1.8,0,4.3-0.2,5.7-1.6c0.5-0.5,0.9-1.3,0.9-2.3
			C293.9,97.2,293.6,96.5,293.1,95.9z M286.8,78.6c-2.8,0-5,1.8-5,4.7c0,2.9,2.2,4.6,5,4.6c2.8,0,5-1.7,5-4.6
			C291.8,80.4,289.6,78.6,286.8,78.6z"/>
		<path class="st0" d="M312.4,95.5V83.7c0-3.1-1.4-5-4.6-5c-4.4,0-6,3.9-6,7.8v9H300v-26h1.8v11.3c1-2.3,3.6-3.8,6.1-3.8
			c4.1,0,6.3,2.6,6.3,6.6v11.9H312.4z"/>
		<path class="st0" d="M334.2,95.6c-2.2,0-2.8-1.6-2.8-3.5c-1,2.6-3.7,3.9-6.5,3.9c-3.5,0-6.2-2.1-6.2-5.5c0-3.2,2.5-5.1,6-5.4
			l6.6-0.5v-1.8c0-3-2-4.1-4.7-4.1c-2.8,0-5,1.3-5.2,4h-1.8c0.3-3.6,3.1-5.6,7-5.6c2.4,0,5.1,0.8,6.1,3.3c0.4,1.1,0.5,2.3,0.5,3.5
			V92c0,1.2,0.2,1.9,1.4,1.9c0.2,0,0.3,0,0.5,0v1.6C334.7,95.5,334.7,95.6,334.2,95.6z M331.4,86.2l-6.4,0.4
			c-2.7,0.2-4.4,1.6-4.4,3.8c0,2.6,1.9,3.9,4.5,3.9c4.5,0,6.3-3.7,6.3-7.1V86.2z"/>
		<path class="st0" d="M363.3,95.5V83.7c0-3.1-1.1-5-4.3-5c-1.4,0-2.4,0.5-3.2,1.2c-1.4,1.3-2.1,3.2-2.1,5.4v10.2h-1.8V83.7
			c0-3.1-1.2-5-4.3-5c-1.4,0-2.4,0.5-3.2,1.2c-1.6,1.5-2.2,4-2.2,6.5v9h-1.8v-18h1.6l0.2,3.1c0.9-2,2.9-3.6,5.5-3.6
			c3.1,0,5,1.5,5.7,3.9c0.9-2.2,2.8-3.9,5.8-3.9c4.2,0,6,2.7,6,6.6v11.9H363.3z"/>
	</g>
	<g>
		<path class="st0" d="M152.3,180.5l-39.1-59.7v59.7h-4.9v-67.4h5.6l39.1,59.6v-59.6h4.8v67.4H152.3z"/>
		<path class="st0" d="M212.2,157.9h-36.3c0.1,5.5,1.9,10.6,4.9,14.3c2.7,3.1,6.4,5,11.5,5c4.2,0,7.8-1.5,10.4-4.2
			c1.7-1.8,3-3.9,3.6-6.7h4.9c-0.7,4.1-2.7,7.4-5.3,10c-3.4,3.4-8.2,5.5-13.6,5.5c-6.8,0-11.7-2.9-15.1-6.7
			c-3.9-4.6-6.1-10.8-6.1-18.1c0-6,1-11.9,4.7-16.9c4-5.4,9.5-8.3,16.2-8.3c12.8,0,20.3,11,20.3,23
			C212.3,155.9,212.2,156.8,212.2,157.9z M192,136.2c-9.8,0-16,7.9-16,17.3h31.5C207.3,144.5,201.7,136.2,192,136.2z"/>
		<path class="st0" d="M269.3,180.5h-5.7l-14-40.7l-13.9,40.7h-5.6L218.4,133h4.6l10.3,41.8l14.1-41.1h5l14,40.8l10.4-41.4h4.5
			L269.3,180.5z"/>
	</g>
	<g>
		<path class="st0" d="M327.8,124.5v56h-12.3v-56h-20v-11.4h52.2v11.4H327.8z"/>
		<path class="st0" d="M383.6,180.5V150c0-5.7-1.9-9.2-8.2-9.2c-7.1,0-10.2,7.6-10.2,13.7v26h-11.9v-68.6h11.9v24.4
			c2.9-4.2,8.4-6.5,13.5-6.5c10.5,0,16.7,7.5,16.7,17.7v33H383.6z"/>
		<path class="st0" d="M449,159.5l-33.1,0c-0.1,3.8,1.2,7.4,3.6,9.7c1.7,1.6,4.1,3,7.3,3c3.4,0,5.5-0.7,7.2-2.4c1-1,1.9-2.4,2.4-4.2
			h11.4c-0.3,2.9-2.3,6.8-4.2,9.1c-4.2,4.9-10.4,6.9-16.6,6.9c-6.7,0-11.7-2.4-15.6-6.1c-4.9-4.8-7.6-11.7-7.6-19.8
			c0-7.9,2.4-14.9,7.1-19.8c3.7-3.8,9-6.3,15.8-6.3c7.3,0,14,2.9,18.1,9.1c3.6,5.4,4.5,11,4.3,17.2C449.1,156.2,449,158.5,449,159.5
			z M434.2,142.2c-1.6-1.7-4.1-2.9-7.5-2.9c-3.6,0-6.6,1.5-8.3,3.8c-1.7,2.2-2.5,4.5-2.6,7.7h21.4
			C437.1,147.2,436.1,144.3,434.2,142.2z"/>
		<path class="st0" d="M495.1,181.3c-5.1,0-8-3.2-8.4-6.9c-2.3,4-8,7.4-15,7.4c-11.8,0-17.9-7.4-17.9-15.5c0-9.4,7.3-14.8,16.7-15.5
			l14.5-1v-3c0-4.7-1.6-7.8-8.4-7.8c-5.5,0-8.7,2.5-9,7h-11.5c0.7-11.1,9.5-16.1,20.5-16.1c8.5,0,15.7,2.7,18.5,10.1
			c1.2,3.1,1.4,6.7,1.4,10v18.3c0,2.3,0.8,3.1,2.8,3.1c0.8,0,1.5-0.2,1.5-0.2v8.7C499,180.8,497.9,181.3,495.1,181.3z M485.1,158.6
			l-12.5,1c-3.6,0.3-7.1,2.5-7.1,6.5c0,3.8,3.3,6.2,7,6.2c7.4,0,12.6-4,12.6-11.3V158.6z"/>
		<path class="st0" d="M526.3,181.2c-10,0-14.9-5.7-14.9-15.2v-25.1h-9v-9.8h9v-12.5l11.9-2.9v15.5h12.4v9.8h-12.4v24
			c0,3.8,1.7,5.4,5.5,5.4c2.5,0,4.5-0.1,7.7-0.5v10C533.2,180.7,529.8,181.2,526.3,181.2z"/>
		<path class="st0" d="M569,141.7c-8.4,0-12.7,6-12.7,14v24.9h-12v-49.4h10.1l1,7.4c2.3-5.7,8.2-8.1,14-8.1c1.2,0,2.5,0.1,3.7,0.3
			v11.4C571.8,141.8,570.3,141.7,569,141.7z"/>
		<path class="st0" d="M620.3,159.5h-33.1c-0.1,3.8,1.2,7.4,3.6,9.7c1.7,1.6,4.1,3,7.3,3c3.4,0,5.5-0.7,7.2-2.4c1-1,1.9-2.4,2.4-4.2
			h11.4c-0.3,2.9-2.3,6.8-4.2,9.1c-4.2,4.9-10.4,6.9-16.6,6.9c-6.7,0-11.7-2.4-15.6-6.1c-4.9-4.8-7.6-11.7-7.6-19.8
			c0-7.9,2.4-14.9,7.1-19.8c3.7-3.8,9-6.3,15.8-6.3c7.3,0,14,2.9,18.1,9.1c3.6,5.4,4.5,11,4.3,17.2
			C620.4,156.2,620.3,158.5,620.3,159.5z M605.5,142.2c-1.6-1.7-4.1-2.9-7.5-2.9c-3.6,0-6.6,1.5-8.3,3.8c-1.7,2.2-2.5,4.5-2.6,7.7
			h21.4C608.4,147.2,607.4,144.3,605.5,142.2z"/>
	</g>
	<rect y="43.7" class="st0" width="84" height="82.8"/>
	<rect x="84" y="0" class="st0" width="44.4" height="43.7"/>
</g>
</svg>
